<svg version="1.2" xmlns="http://www.w3.org/2000/svg" viewBox="0 0 400 400" width="400" height="400">
	<title>Yeni Proje</title>
	<style>
		.s0 { fill: #ffffff;stroke: #000000;stroke-linecap: round;stroke-linejoin: round;stroke-width: 5 } 
		.s1 { fill: #000000 } 
		.s2 { fill: none;stroke: #000000;stroke-linecap: round;stroke-linejoin: round;stroke-width: 5 } 
	</style>
	<g id="g5439">
		<g id="g3915-6-1-6-3-8-9-4">
			<path id="path3894-6-1-0-5-5-2-9" class="s0" d="m340.7 287.6c16.6 5.9 14.7 19.9 8.3 34.3-9 20.3-50.1 47.3-69.5 49.9-17.8 2.5-31.7-3.9-33.5-17.7"/>
			<path id="path3112-2-8-6-8-2-9-8" class="s0" d="m177.3 288.2c-35.3-48.3-88.1-83.4-115-105.9-39.4-33-8.9-89.7 22.8-62.1 19.2 16.8 52.2 36.8 74.1 51.6-25.6-39.7-32.8-56-43.8-74.1-23.7-38.5 20.5-89.8 45.4-48.5 16.6 27.7 35.7 55.9 53.8 77.5 7.4 8.8-6.3-57.2-9.2-65.9-6-17.9 8.6-50.4 31.5-33.6 8.3 6 40.6 100.2 66.7 128.7 8 8.7 16.5 20.2 22.6 31.5 16.9 31.9 23.1 63.8 13.7 100.1-5.6 21.2-45.7 51.3-67.6 59.3-33.8 12.4-86.8-7.6-99.7-0.6-33.5 18.2-67.7 30.2-72.4 8.6-14.1-65.2 46.9-67 77.1-66.6z"/>
			<path id="path3882-6-1-33-9-9-7-9" class="s1" d="m159.4 163c2.8 4.5 5.7 7.7 8.4 10 16.5 13.9 20.9 16.5 37.2 28.3-7.8-3.1-25.3-7.3-50.7-26.8z"/>
			<path id="path3884-6-1-2-9-6-6-0" class="s1" d="m221.5 120.1c0.4 6 2.2 9.5 5 12.7 10.5 11.6 22.1 24.8 28.8 32.6-14.3-6.5-32.4-21-44.4-35.4 3.7-3.1 7.8-5.9 10.6-9.9z"/>
			<path id="path3886-8-5-4-3-7-0-8" class="s2" d="m310.1 288.3c-7.3-24.8-11.7-30-17-41.4"/>
			<path id="path3888-4-4-9-8-4-7-4" class="s2" d="m293.3 304.2c-14.6-24.6-23.9-35-35.1-50.5"/>
			<path id="path3890-1-8-5-1-8-9-7" class="s2" d="m272.6 322.5c-12.2-15.4-19.4-21.5-28.1-30.5"/>
		</g>
	</g>
</svg>